<?xml version="1.0" encoding="UTF-8"?>
<svg width="120px" height="27.961165px" viewBox="0 0 120 27.961165" version="1.1" xmlns="http://www.w3.org/2000/svg" xmlns:xlink="http://www.w3.org/1999/xlink">
    <title>craftal-logo-black</title>
    <g id="assets" stroke="none" stroke-width="1" fill="none" fill-rule="evenodd">
        <path d="M51.7930634,9.70873786 L52.9449838,9.70873786 L52.9449838,12.3348599 L51.0172803,12.3348599 C49.4657141,12.3348599 48.2863671,12.5810588 47.4792392,13.0734567 C46.6721113,13.5658546 46.2685474,14.4373206 46.2685474,15.6878549 L46.2685474,22.1359223 L42.9773463,22.1359223 L42.9773463,9.70873786 L46.2685474,9.70873786 L46.2685474,11.9831471 L46.3625817,11.9831471 C47.0521667,10.4668743 48.8623272,9.70873786 51.7930634,9.70873786 Z M70.1618123,14.6042954 L70.1618123,22.1594587 L66.9023073,22.1594587 L66.9023073,19.6646072 L66.8085086,19.6646072 C66.0737521,21.4847504 63.932015,22.394822 60.3832973,22.394822 C56.2874206,22.394822 54.2394822,21.0767873 54.2394822,18.4407179 L54.2394822,18.2524272 C54.2551153,15.9772482 55.7168118,14.7925861 58.6245716,14.6984407 L66.9023073,14.4160047 L66.9023073,14.3453957 C66.9023073,13.309797 66.562287,12.6076297 65.8822464,12.2388938 C65.2022058,11.8701579 64.0727131,11.6857899 62.4937682,11.6857899 C61.1962195,11.6857899 60.2347827,11.8073943 59.609458,12.0506031 C58.9841333,12.2938119 58.5307729,12.7213886 58.2493768,13.3333333 L54.8491738,13.3333333 C55.2087355,11.9839168 55.9669417,10.9993135 57.1237924,10.3795234 C58.2806431,9.75973325 60.070635,9.44983819 62.4937682,9.44983819 L63.1269095,9.44983819 C65.6438414,9.44983819 67.4455581,9.84211042 68.5320598,10.6266549 C69.6185615,11.4111994 70.1618123,12.7370795 70.1618123,14.6042954 Z M57.5458865,18.2053545 L57.5458865,18.2994999 C57.5458865,18.989899 57.8546406,19.484162 58.4721487,19.7822889 C59.0896569,20.0804158 60.0550019,20.2294793 61.3681837,20.2294793 C63.0252942,20.2294793 64.3619257,19.9313524 65.3780784,19.3350986 C66.394231,18.7388448 66.9023073,17.8915367 66.9023073,16.7931745 L66.9023073,16.4401294 L60.0315522,16.6990291 C59.1560976,16.7304109 58.5229564,16.8637835 58.1321284,17.0991468 C57.7413005,17.3345102 57.5458865,17.7032461 57.5458865,18.2053545 Z M75.604498,12.1544152 L71.97411,12.1544152 L71.97411,9.68839575 L75.6279199,9.68839575 C75.7216073,8.20095546 76.21737,7.16366158 77.1152078,6.5765141 C78.0130457,5.98936662 79.398839,5.69579288 81.2725876,5.69579288 L84.012945,5.69579288 L84.012945,8.1618123 L81.9283996,8.1618123 C80.8509942,8.1618123 80.0702656,8.25967021 79.5862138,8.45538604 C79.1021621,8.65110186 78.8601362,9.02296194 78.8601362,9.57096625 L78.8601362,9.68839575 L84.012945,9.68839575 L84.012945,12.1544152 L78.8601362,12.1544152 L78.8601362,22.1359223 L75.604498,22.1359223 L75.604498,12.1544152 Z M88.3860982,12.1544152 L84.9190939,12.1544152 L84.9190939,9.68839575 L88.3860982,9.68839575 L88.3860982,5.69579288 L91.6644221,5.69579288 L91.6644221,9.68839575 L96.3106796,9.68839575 L96.3106796,12.1544152 L91.6644221,12.1544152 L91.6644221,16.9220527 C91.6644221,18.0650331 91.9199269,18.8087533 92.4309366,19.1532131 C92.9419463,19.497673 93.857833,19.6699029 95.1785966,19.6699029 L96.3106796,19.6699029 L96.3106796,22.1359223 L94.1408538,22.1359223 C92.018198,22.1359223 90.5284082,21.7836338 89.6714842,21.0790569 C88.8145602,20.3744799 88.3860982,19.1375559 88.3860982,17.3682848 L88.3860982,12.1544152 Z M114.045307,14.6042954 L114.045307,22.1594587 L110.785802,22.1594587 L110.785802,19.6646072 L110.692004,19.6646072 C109.957247,21.4847504 107.81551,22.394822 104.266792,22.394822 C100.170916,22.394822 98.1229773,21.0767873 98.1229773,18.4407179 L98.1229773,18.2524272 C98.1386105,15.9772482 99.6003069,14.7925861 102.508067,14.6984407 L110.785802,14.4160047 L110.785802,14.3453957 C110.785802,13.309797 110.445782,12.6076297 109.765742,12.2388938 C109.085701,11.8701579 107.956208,11.6857899 106.377263,11.6857899 C105.079715,11.6857899 104.118278,11.8073943 103.492953,12.0506031 C102.867628,12.2938119 102.414268,12.7213886 102.132872,13.3333333 L98.7326689,13.3333333 C99.0922306,11.9839168 99.8504368,10.9993135 101.007288,10.3795234 C102.164138,9.75973325 103.95413,9.44983819 106.377263,9.44983819 L107.010405,9.44983819 C109.527337,9.44983819 111.329053,9.84211042 112.415555,10.6266549 C113.502057,11.4111994 114.045307,12.7370795 114.045307,14.6042954 Z M101.429382,18.2053545 L101.429382,18.2994999 C101.429382,18.989899 101.738136,19.484162 102.355644,19.7822889 C102.973152,20.0804158 103.938497,20.2294793 105.251679,20.2294793 C106.908789,20.2294793 108.245421,19.9313524 109.261574,19.3350986 C110.277726,18.7388448 110.785802,17.8915367 110.785802,16.7931745 L110.785802,16.4401294 L103.915047,16.6990291 C103.039593,16.7304109 102.406452,16.8637835 102.015624,17.0991468 C101.624796,17.3345102 101.429382,17.7032461 101.429382,18.2053545 Z M120,5.69579288 L120,22.1359223 L116.763754,22.1359223 L116.763754,5.69579288 L120,5.69579288 Z M21.9029126,0 C27.8058252,0 32.1165049,0.770226537 34.8349515,2.31067961 C37.5533981,3.85113269 39.1456311,6.51132686 39.6116505,10.2912621 L39.6116505,17.6699029 C39.1456311,21.4498382 37.5533981,24.1100324 34.8349515,25.6504854 C32.1165049,27.1909385 27.8058252,27.961165 21.9029126,27.961165 L17.8640777,27.961165 C11.3139159,27.961165 6.69902913,27.0032362 4.01941748,25.0873786 C1.33980583,23.171521 0,19.7540453 0,14.8349515 L0,13.1262136 C0,8.20711974 1.33980583,4.78964401 4.01941748,2.87378641 C6.69902913,0.957928803 11.3139159,0 17.8640777,0 L21.9029126,0 Z M21.2343423,4.91909385 L18.6077797,4.91909385 C14.3480339,4.91909385 11.3468494,5.54206062 9.60422616,6.78799416 C7.86160289,8.0339277 6.99029126,10.2564037 6.99029126,13.4554223 L6.99029126,14.5666603 C6.99029126,17.7656789 7.86160289,19.9881549 9.60422616,21.2340885 C11.3468494,22.480022 14.3480339,23.1029888 18.6077797,23.1029888 L21.2343423,23.1029888 C25.0731645,23.1029888 27.876515,22.6020898 29.6443937,21.6002919 C31.4122724,20.598494 32.4477441,18.8684984 32.7508091,16.4103052 L26.335935,16.4103052 C26.049707,17.3195 25.4982973,17.929839 24.6817057,18.2413224 C23.8651141,18.5528058 22.3792542,18.7085475 20.2241259,18.7085475 L19.6179961,18.7085475 C17.8332805,18.7085475 16.4947437,18.5612243 15.6023859,18.2665778 C14.7100281,17.9719314 14.116526,17.5299617 13.8218796,16.9406688 C13.5272331,16.3513759 13.3799099,15.4758551 13.3799099,14.3141062 L13.3799099,13.7332318 C13.3799099,12.554646 13.5272331,11.6707067 13.8218796,11.0814138 C14.116526,10.4921209 14.7100281,10.0501512 15.6023859,9.75550479 C16.4947437,9.46085835 17.8332805,9.31353512 19.6179961,9.31353512 L20.2241259,9.31353512 C22.3792542,9.31353512 23.8651141,9.46927682 24.6817057,9.7807602 C25.4982973,10.0922436 26.049707,10.7025827 26.335935,11.6117774 L32.7508091,11.6117774 C32.4477441,9.1535842 31.4122724,7.42358864 29.6443937,6.42179072 C27.876515,5.41999281 25.0731645,4.91909385 21.2343423,4.91909385 Z" id="craftal-logo-black" fill="#000000" fill-rule="nonzero"></path>
    </g>
</svg>